Coordinates
version=1
nRows=13
nColumns=63
inDegrees=yes

Units are S.I. units (second, meters, Newtons, ...)
If the header above contains a line with 'inDegrees', this indicates whether rotational values are in degrees (yes) or radians (no).

endheader
time	pelvis_tilt	pelvis_list	pelvis_rotation	pelvis_tx	pelvis_ty	pelvis_tz	hip_flexion_r	hip_adduction_r	hip_rotation_r	knee_angle_r	knee_angle_r_beta	ankle_angle_r	subtalar_angle_r	mtp_angle_r	hip_flexion_l	hip_adduction_l	hip_rotation_l	knee_angle_l	knee_angle_l_beta	ankle_angle_l	subtalar_angle_l	mtp_angle_l	L5_S1_Flex_Ext	L5_S1_Lat_Bending	L5_S1_axial_rotation	L4_L5_Flex_Ext	L4_L5_Lat_Bending	L4_L5_axial_rotation	L3_L4_Flex_Ext	L3_L4_Lat_Bending	L3_L4_axial_rotation	L2_L3_Flex_Ext	L2_L3_Lat_Bending	L2_L3_axial_rotation	L1_L2_Flex_Ext	L1_L2_Lat_Bending	L1_L2_axial_rotation	L1_T12_Flex_Ext	L1_T12_Lat_Bending	L1_T12_axial_rotation	Abs_r3	Abs_r2	Abs_r1	Abs_t1	Abs_t2	neck_flexion	neck_bending	neck_rotation	arm_flex_r	arm_add_r	arm_rot_r	elbow_flex_r	pro_sup_r	wrist_flex_r	wrist_dev_r	arm_flex_l	arm_add_l	arm_rot_l	elbow_flex_l	pro_sup_l	wrist_flex_l	wrist_dev_l
4.440678	3.314089	-10.729084	93.043112	0.120067	0.700953	0.777253	1.019743	4.513678	9.407354	5.471188	0.095490	26.278220	-5.675685	0.000000	4.766787	-3.204776	-4.604065	12.175708	0.212506	32.576735	-1.496047	0.000000	0.162153	0.262207	-2.127956	0.301135	0.348736	-2.260953	0.266401	0.637531	-2.260953	0.185325	0.637531	-1.861962	0.150575	0.534693	-1.728964	0.092654	0.406159	-1.595967	1.158244	2.966140	-11.835053	0.000000	0.000000	28.173311	-1.915749	-22.165263	-45.634848	-71.307284	-76.312878	147.275269	87.155349	3.301170	15.435805	-4.219360	-17.049937	16.333625	35.255868	78.887804	-2.509998	-3.381282
4.457627	3.300977	-10.674285	93.009774	0.120066	0.700704	0.777305	0.945799	4.518029	9.562893	5.508816	0.096147	26.098857	-6.003388	0.000000	4.724564	-3.143752	-4.139857	12.269654	0.214146	32.520387	-2.154888	0.000000	0.159872	0.278365	-2.157757	0.296899	0.370226	-2.292617	0.262654	0.676817	-2.292617	0.182718	0.676817	-1.888037	0.148458	0.567642	-1.753178	0.091351	0.431188	-1.618318	1.141953	3.148923	-12.000798	0.000000	0.000000	28.169738	-2.094895	-21.085744	-45.411892	-71.985757	-78.377563	146.609032	86.885219	4.800436	15.327060	-4.194156	-17.126304	16.752956	35.227949	78.265992	-2.506782	-3.547584
4.474576	3.277664	-10.613436	92.949668	0.120026	0.700512	0.777335	0.855080	4.503193	9.663933	5.516271	0.096277	25.956460	-6.187083	0.000000	4.663445	-3.080841	-3.794004	12.348494	0.215522	32.485021	-2.665271	0.000000	0.156459	0.293516	-2.180406	0.290561	0.390377	-2.316682	0.257047	0.713656	-2.316682	0.178818	0.713656	-1.907856	0.145288	0.598539	-1.771580	0.089401	0.454657	-1.635305	1.117574	3.320317	-12.126767	0.000000	0.000000	28.164347	-2.266229	-20.036023	-45.405799	-72.735964	-80.916792	145.818415	86.619462	6.181522	15.286749	-4.128927	-17.245910	17.373650	35.193939	77.599675	-2.556906	-3.742871
4.491525	3.244389	-10.552396	92.874438	0.119931	0.700390	0.777347	0.751343	4.469366	9.732141	5.484534	0.095723	25.849962	-6.254143	0.000000	4.590179	-3.017475	-3.574935	12.405451	0.216516	32.473177	-2.995746	0.000000	0.152482	0.307131	-2.199690	0.283174	0.408484	-2.337171	0.250513	0.746757	-2.337171	0.174272	0.746757	-1.924729	0.141595	0.626301	-1.787248	0.087128	0.475745	-1.649768	1.089164	3.474323	-12.234017	0.000000	0.000000	28.155434	-2.413845	-19.033797	-45.506521	-73.546652	-83.781832	144.922835	86.354835	7.411427	15.351426	-4.040961	-17.405265	18.151726	35.177071	76.903528	-2.730935	-3.903168
4.508475	3.190469	-10.484769	92.765648	0.119804	0.700372	0.777311	0.616761	4.404057	9.779772	5.390555	0.094083	25.775725	-6.195250	0.000000	4.483643	-2.940924	-3.489676	12.419027	0.216753	32.462161	-3.161043	0.000000	0.146857	0.317356	-2.208123	0.272728	0.422083	-2.346131	0.241271	0.771619	-2.346131	0.167843	0.771619	-1.932107	0.136371	0.647152	-1.794100	0.083914	0.491584	-1.656092	1.048985	3.589994	-12.280917	0.000000	0.000000	28.142363	-2.545880	-18.145030	-45.710987	-74.339713	-86.919095	143.961397	86.140223	8.405884	15.458681	-3.891582	-17.576926	19.061801	35.084724	76.226126	-2.893916	-4.114838
4.525424	3.113139	-10.411385	92.655692	0.119661	0.700482	0.777264	0.471720	4.304637	9.598847	5.270047	0.091980	25.797789	-5.765517	0.000000	4.357265	-2.850618	-3.504518	12.400191	0.216424	32.445284	-3.181168	0.000000	0.138589	0.322343	-2.224166	0.257374	0.428716	-2.363176	0.227688	0.783745	-2.363176	0.158394	0.783745	-1.946145	0.128694	0.657322	-1.807135	0.079190	0.499310	-1.668124	0.989929	3.646411	-12.370144	0.000000	0.000000	28.123619	-2.581620	-17.325381	-45.417177	-75.175049	-89.688373	142.974773	85.993329	9.219149	15.810508	-3.807831	-17.754793	19.705955	35.030436	75.900648	-3.133212	-4.246363
4.542373	3.025485	-10.343074	92.542436	0.119467	0.700671	0.777136	0.306444	4.188387	9.520931	5.087820	0.088799	25.811445	-5.415945	0.000000	4.217734	-2.761569	-3.671367	12.351010	0.215566	32.442091	-3.000213	0.000000	0.130031	0.324424	-2.229141	0.241481	0.431484	-2.368463	0.213628	0.788804	-2.368463	0.148613	0.788804	-1.950499	0.120747	0.661565	-1.811177	0.074300	0.502532	-1.671856	0.928799	3.669946	-12.397815	0.000000	0.000000	28.103513	-2.615609	-16.680148	-45.409562	-75.890299	-92.799848	142.002118	85.950002	9.697876	16.203860	-3.640732	-17.937298	20.587704	34.883139	75.451198	-3.400993	-4.494503
4.559322	2.925741	-10.286627	92.429285	0.119217	0.700923	0.776900	0.129120	4.051253	9.507592	4.848996	0.084631	25.827207	-5.109168	0.000000	4.069392	-2.667676	-3.966974	12.265903	0.214080	32.437870	-2.667828	0.000000	0.122445	0.323050	-2.223751	0.227393	0.429657	-2.362736	0.201165	0.785465	-2.362736	0.139943	0.785465	-1.945783	0.113703	0.658764	-1.806798	0.069965	0.500405	-1.667814	0.874615	3.654410	-12.367839	0.000000	0.000000	28.084379	-2.645739	-16.244550	-45.715469	-76.471657	-96.184565	141.069057	86.026006	9.797786	16.593907	-3.403298	-18.114942	21.677596	34.643409	74.853961	-3.681989	-4.846840
4.576271	2.817019	-10.243219	92.301666	0.118942	0.701225	0.776537	-0.052809	3.896325	9.569179	4.567283	0.079714	25.852380	-4.842128	0.000000	3.908782	-2.567308	-4.346019	12.139500	0.211874	32.423401	-2.279293	0.000000	0.116021	0.318564	-2.206353	0.215462	0.423690	-2.344250	0.190610	0.774557	-2.344250	0.132600	0.774557	-1.930558	0.107737	0.649616	-1.792661	0.066294	0.493456	-1.654764	0.828724	3.603661	-12.271071	0.000000	0.000000	28.067841	-2.675304	-16.017750	-46.311107	-76.921545	-99.736149	140.190205	86.225540	9.526863	16.904787	-3.106587	-18.264171	22.903490	34.299382	74.127022	-3.923351	-5.314298
4.593220	2.697577	-10.214566	92.172795	0.118634	0.701556	0.776039	-0.237899	3.724447	9.743594	4.245460	0.074097	25.872779	-4.696036	0.000000	3.742213	-2.457074	-4.795765	11.975005	0.209003	32.404365	-1.835535	0.000000	0.111254	0.310765	-2.179792	0.206609	0.413318	-2.316029	0.182779	0.755595	-2.316029	0.127152	0.755595	-1.907318	0.103310	0.633713	-1.771081	0.063570	0.481376	-1.634844	0.794674	3.515441	-12.123349	0.000000	0.000000	28.054855	-2.722890	-16.011476	-47.177727	-77.256248	-103.402577	139.371218	86.502731	9.057430	17.105300	-2.737736	-18.405872	24.375134	33.847826	73.176905	-4.126527	-5.930015
4.610169	2.577477	-10.206875	92.062987	0.118289	0.701888	0.775420	-0.413526	3.547066	9.977863	3.898287	0.068038	25.896451	-4.634597	0.000000	3.589615	-2.357848	-5.397263	11.794268	0.205849	32.416753	-1.183986	0.000000	0.109453	0.301144	-2.152801	0.203265	0.400522	-2.287351	0.179820	0.732202	-2.287351	0.125094	0.732202	-1.883701	0.101638	0.614093	-1.749151	0.062541	0.466472	-1.614601	0.781810	3.406604	-11.973234	0.000000	0.000000	28.045644	-2.784641	-16.170320	-48.212303	-77.519155	-107.039152	138.590244	86.727199	8.526024	17.140029	-2.358069	-18.504653	25.790612	33.320549	72.264391	-4.209552	-6.584858
4.627119	2.446118	-10.205442	91.969935	0.117908	0.702201	0.774664	-0.599435	3.360902	10.407467	3.527738	0.061571	25.879207	-4.862251	0.000000	3.429396	-2.244248	-6.025895	11.582793	0.202158	32.439633	-0.480953	0.000000	0.109232	0.289594	-2.122489	0.202855	0.385161	-2.255144	0.179458	0.704120	-2.255144	0.124842	0.704120	-1.857178	0.101433	0.590541	-1.724522	0.062415	0.448582	-1.591867	0.780235	3.275950	-11.804646	0.000000	0.000000	28.040254	-2.906690	-16.449049	-49.547880	-77.702926	-110.754985	137.865098	86.956394	7.939301	16.898261	-1.903386	-18.641745	27.568330	32.708851	70.982901	-4.270550	-7.387650
4.644068	2.291399	-10.207680	91.897982	0.117533	0.702482	0.773811	-0.784646	3.153621	10.868738	3.165556	0.055249	25.871779	-5.169787	0.000000	3.268918	-2.116811	-6.774682	11.362516	0.198313	32.497201	0.419953	0.000000	0.109577	0.274114	-2.097499	0.203495	0.364572	-2.228593	0.180023	0.666481	-2.228593	0.125235	0.666481	-1.835312	0.101753	0.558974	-1.704218	0.062612	0.424603	-1.573124	0.782695	3.100836	-11.665660	0.000000	0.000000	28.039330	-3.108027	-16.872401	-50.896344	-77.834328	-114.220443	137.176082	86.928074	7.374992	16.412782	-1.507984	-18.759103	29.066157	32.137750	69.999841	-4.205179	-8.090245
